<?xml version="1.0" encoding="UTF-8"?>
<svg data-bbox="49.27 21.59 512.5 281.22" viewBox="0 0 612 324.89" xmlns:xlink="http://www.w3.org/1999/xlink" xmlns="http://www.w3.org/2000/svg" data-type="color">
    <g>
        <defs>
            <path id="46bcc710-aa63-4b68-bb0f-0841955504be" d="M612 0v324.89H0V0h612z"/>
        </defs>
        <clipPath id="59e3818a-07b6-45cc-b4ea-21d142c74289">
            <use xlink:href="#46bcc710-aa63-4b68-bb0f-0841955504be" overflow="visible"/>
        </clipPath>
        <path d="M76.54 212.19c-3.64 0-5.45-.99-5.45-2.98v-32.62L50.3 144.07c-.69-1.03-1.03-1.82-1.03-2.37 0-.62.48-1.1 1.44-1.44.96-.34 2.47-.51 4.53-.51h3.29c1.37 0 2.52.12 3.45.36.93.24 1.63.74 2.11 1.49l14.1 23.15 14.2-23.26c.48-.69 1.2-1.15 2.16-1.39.96-.24 2.13-.36 3.5-.36h2.68c3.77 0 5.66.65 5.66 1.96 0 .27-.09.62-.26 1.03-.17.41-.4.86-.67 1.34L84.57 176.9v32.32c0 1.99-1.82 2.98-5.45 2.98h-2.58z" clip-path="url(#59e3818a-07b6-45cc-b4ea-21d142c74289)" fill="#ffffff" data-color="1"/>
        <path d="M107.51 212.19c-3.77 0-5.66-.68-5.66-2.06 0-.27.05-.55.15-.82.1-.27.19-.58.26-.93l23.26-66.69c.48-1.3 2.23-1.96 5.25-1.96h4.53c3.09 0 4.84.65 5.25 1.96l23.26 66.69c.21.62.31 1.2.31 1.75 0 1.37-1.65 2.06-4.94 2.06h-3.19c-1.37 0-2.52-.14-3.45-.41-.93-.27-1.53-.79-1.8-1.54l-4.73-14.1h-26.35l-4.73 14.1c-.28.69-.81 1.18-1.6 1.49-.79.31-1.77.46-2.93.46h-2.89zm15.95-27.58h18.63l-7.51-22.64c-.34-1.03-.64-2.09-.88-3.19s-.43-2.16-.57-3.19h-.41c-.21 1.03-.41 2.09-.62 3.19-.21 1.1-.51 2.16-.93 3.19l-7.71 22.64z" clip-path="url(#59e3818a-07b6-45cc-b4ea-21d142c74289)" fill="#ffffff" data-color="1"/>
        <path d="M177.8 212.19c-3.64 0-5.45-.99-5.45-2.98v-66.48c0-1.99 1.82-2.98 5.45-2.98h3.7c1.37 0 2.54.15 3.5.46.96.31 1.75.98 2.37 2.01l26.35 40.24c.75 1.03 1.42 2.04 2.01 3.04.58 1 1.12 2.04 1.6 3.14l.41-.1c-.07-1.17-.12-2.25-.15-3.24-.04-.99-.05-2.25-.05-3.76v-38.8c0-1.99 1.82-2.98 5.46-2.98h2.26c3.63 0 5.45.99 5.45 2.98v66.48c0 1.99-1.82 2.98-5.45 2.98h-3.29c-1.3 0-2.42-.15-3.35-.46s-1.7-.94-2.32-1.9l-26.96-40.96c-.69-1.03-1.32-2.02-1.9-2.99a44.21 44.21 0 0 1-1.7-3.09l-.41.1c.14 1.17.21 2.25.21 3.24v43.07c0 1.99-1.82 2.98-5.45 2.98h-2.29z" clip-path="url(#59e3818a-07b6-45cc-b4ea-21d142c74289)" fill="#ffffff" data-color="1"/>
        <path d="M368.08 212.19c-3.77 0-5.66-.68-5.66-2.06 0-.27.05-.55.15-.82.1-.27.19-.58.26-.93l23.26-66.69c.48-1.3 2.23-1.96 5.25-1.96h4.53c3.09 0 4.84.65 5.25 1.96l23.26 66.69c.21.62.31 1.2.31 1.75 0 1.37-1.65 2.06-4.94 2.06h-3.19c-1.37 0-2.52-.14-3.45-.41-.93-.27-1.53-.79-1.8-1.54l-4.73-14.1h-26.35l-4.73 14.1c-.27.69-.81 1.18-1.6 1.49-.79.31-1.77.46-2.93.46h-2.89zm15.95-27.58h18.63l-7.51-22.64c-.35-1.03-.64-2.09-.88-3.19s-.43-2.16-.57-3.19h-.41c-.21 1.03-.41 2.09-.62 3.19-.21 1.1-.52 2.16-.93 3.19l-7.71 22.64z" clip-path="url(#59e3818a-07b6-45cc-b4ea-21d142c74289)" fill="#ffffff" data-color="1"/>
        <path d="M438.37 212.19c-3.64 0-5.45-.99-5.45-2.98v-66.48c0-1.99 1.82-2.98 5.45-2.98h3.7c1.37 0 2.54.15 3.5.46.96.31 1.75.98 2.37 2.01l26.35 40.24c.75 1.03 1.42 2.04 2.01 3.04.58 1 1.12 2.04 1.6 3.14l.41-.1c-.07-1.17-.12-2.25-.15-3.24-.04-.99-.05-2.25-.05-3.76v-38.8c0-1.99 1.82-2.98 5.45-2.98h2.26c3.64 0 5.45.99 5.45 2.98v66.48c0 1.99-1.82 2.98-5.45 2.98h-3.29c-1.3 0-2.42-.15-3.35-.46s-1.7-.94-2.32-1.9l-26.96-40.96c-.69-1.03-1.32-2.02-1.9-2.99a44.21 44.21 0 0 1-1.7-3.09l-.41.1c.14 1.17.21 2.25.21 3.24v43.07c0 1.99-1.82 2.98-5.45 2.98h-2.28z" clip-path="url(#59e3818a-07b6-45cc-b4ea-21d142c74289)" fill="#ffffff" data-color="1"/>
        <path d="M505.16 212.19c-3.77 0-5.66-.68-5.66-2.06 0-.27.05-.55.15-.82.1-.27.19-.58.26-.93l23.26-66.69c.48-1.3 2.23-1.96 5.25-1.96h4.53c3.09 0 4.84.65 5.25 1.96l23.26 66.69c.21.62.31 1.2.31 1.75 0 1.37-1.65 2.06-4.94 2.06h-3.19c-1.37 0-2.52-.14-3.45-.41-.93-.27-1.53-.79-1.8-1.54l-4.73-14.1H517.3l-4.73 14.1c-.27.69-.81 1.18-1.59 1.49-.79.31-1.77.46-2.93.46h-2.89zm15.95-27.58h18.63l-7.51-22.64c-.35-1.03-.64-2.09-.88-3.19s-.43-2.16-.57-3.19h-.41c-.21 1.03-.41 2.09-.62 3.19-.21 1.1-.52 2.16-.93 3.19l-7.71 22.64z" clip-path="url(#59e3818a-07b6-45cc-b4ea-21d142c74289)" fill="#ffffff" data-color="1"/>
        <path d="M346.58 197.72c0-21.93 7.55-42.09 20.18-58.04 16.83-21.22 42.65-34.97 71.72-35.46-.08-9.73-1.19-19.21-3.22-28.34-30.92 1.21-58.89 13.93-79.74 34.01-7.79 7.5-14.58 16.02-20.16 25.35-10.93 18.27-17.21 39.64-17.21 62.48v41.4c9.83-1.03 19.35-3.12 28.43-6.16v-35.24z" fill-rule="evenodd" clip-rule="evenodd" fill="#00bee6" clip-path="url(#59e3818a-07b6-45cc-b4ea-21d142c74289)" data-color="2"/>
        <path d="M289.74 197.58c-.03-22.78-6.31-44.11-17.2-62.34-5.6-9.33-12.38-17.85-20.17-25.35-20.84-20.07-48.8-32.8-79.73-34.01-2.04 9.13-3.15 18.62-3.24 28.34 29.07.49 54.9 14.24 71.71 35.46 12.65 15.95 20.19 36.11 20.19 58.04v35.25c9.08 3.03 18.6 5.13 28.43 6.16v-41.55z" fill-rule="evenodd" clip-rule="evenodd" fill="#00bee6" clip-path="url(#59e3818a-07b6-45cc-b4ea-21d142c74289)" data-color="2"/>
        <path d="M266.61 84.38c7.39 6.45 14.14 13.6 20.16 21.36 6.69 8.66 12.48 18.07 17.18 28.08a150.918 150.918 0 0 1 17.2-28.08c6-7.76 12.75-14.91 20.14-21.36 23.04-20.09 52.26-33.29 84.43-36.34a134.677 134.677 0 0 0-16.46-26.45c-32.16 5.6-61.36 19.77-85.17 40.09a180.848 180.848 0 0 0-20.14 20.16c-6.17-7.24-12.9-13.99-20.14-20.16-23.8-20.32-53.01-34.49-85.15-40.09-6.46 8.1-12 16.98-16.47 26.45 32.18 3.05 61.4 16.24 84.42 36.34" fill-rule="evenodd" clip-rule="evenodd" fill="#00bee6" clip-path="url(#59e3818a-07b6-45cc-b4ea-21d142c74289)" data-color="2"/>
        <path d="M179.77 302.69c-.78 0-1.17-.21-1.17-.64v-17.64H173c-.39 0-.58-.29-.58-.88v-.47c0-.58.19-.88.58-.88h13.69c.39 0 .58.29.58.88v.47c0 .58-.2.88-.58.88h-5.52v17.64c0 .43-.39.64-1.17.64h-.23z" clip-path="url(#59e3818a-07b6-45cc-b4ea-21d142c74289)" fill="#ffffff" data-color="1"/>
        <path d="M191.86 302.69c-.78 0-1.17-.21-1.17-.64v-19.27c0-.43.39-.64 1.17-.64h.23c.78 0 1.17.21 1.17.64v19.27c0 .43-.39.64-1.17.64h-.23z" clip-path="url(#59e3818a-07b6-45cc-b4ea-21d142c74289)" fill="#ffffff" data-color="1"/>
        <path d="M207.89 296.94c-.29 0-.51-.13-.64-.38l-5.2-9.05c-.14-.21-.26-.43-.37-.64-.11-.21-.22-.44-.34-.67l-.12.03c.04.25.06.52.06.79v15.04c0 .43-.39.64-1.17.64h-.21c-.78 0-1.17-.21-1.17-.64v-19.27c0-.43.39-.64 1.17-.64h1.05c.35 0 .62.05.82.15.19.1.33.22.41.38l5.52 9.58c.15.25.3.55.44.88.14.33.24.65.32.96.1-.33.24-.68.42-1.04s.35-.66.48-.89l5.37-9.49c.1-.16.24-.28.42-.38.18-.1.45-.15.8-.15h.96c.78 0 1.17.21 1.17.64v19.27c0 .43-.39.64-1.17.64h-.21c-.78 0-1.17-.21-1.17-.64v-14.04c0-.27 0-.55.01-.82.01-.27.02-.53.04-.79l-.12-.03c-.12.23-.23.46-.34.67-.11.21-.23.43-.36.64l-5.11 8.88c-.14.25-.35.38-.64.38h-1.12z" clip-path="url(#59e3818a-07b6-45cc-b4ea-21d142c74289)" fill="#ffffff" data-color="1"/>
        <path d="M224.47 302.63c-.58 0-.88-.29-.88-.88v-18.69c0-.58.29-.88.88-.88h10.19c.39 0 .58.29.58.88v.47c0 .58-.19.88-.58.88h-8.5v6.66h7.62c.39 0 .58.29.58.88v.47c0 .58-.2.88-.58.88h-7.62v7.12h8.53c.39 0 .58.29.58.88v.47c0 .58-.2.88-.58.88h-10.22z" clip-path="url(#59e3818a-07b6-45cc-b4ea-21d142c74289)" fill="#ffffff" data-color="1"/>
        <path d="M251.62 302.69c-.78 0-1.17-.21-1.17-.64v-17.64h-5.61c-.39 0-.58-.29-.58-.88v-.47c0-.58.19-.88.58-.88h13.69c.39 0 .58.29.58.88v.47c0 .58-.2.88-.58.88h-5.52v17.64c0 .43-.39.64-1.17.64h-.22z" clip-path="url(#59e3818a-07b6-45cc-b4ea-21d142c74289)" fill="#ffffff" data-color="1"/>
        <path d="M269.78 302.81c-2.92 0-5.15-.89-6.69-2.67-1.54-1.78-2.31-4.38-2.31-7.78 0-3.43.77-6.01 2.31-7.74 1.54-1.73 3.77-2.6 6.69-2.6 2.94 0 5.18.87 6.71 2.6 1.54 1.73 2.31 4.31 2.31 7.74 0 3.41-.77 6-2.31 7.78-1.53 1.78-3.77 2.67-6.71 2.67m0-2.22c2.06 0 3.64-.7 4.73-2.1 1.09-1.4 1.64-3.45 1.64-6.13 0-2.69-.55-4.71-1.64-6.07-1.09-1.36-2.67-2.04-4.73-2.04-2.06 0-3.64.68-4.72 2.04-1.08 1.36-1.62 3.39-1.62 6.07 0 2.69.54 4.73 1.62 6.13 1.09 1.4 2.66 2.1 4.72 2.1" clip-path="url(#59e3818a-07b6-45cc-b4ea-21d142c74289)" fill="#ffffff" data-color="1"/>
        <path d="M294.6 302.81c-1.25 0-2.36-.15-3.33-.44-.97-.29-1.69-.61-2.16-.96-.37-.27-.55-.52-.55-.73 0-.16.06-.36.19-.61s.27-.48.44-.67c.17-.19.3-.29.39-.29.06 0 .14.02.25.07.11.05.23.12.36.22.39.21.95.47 1.69.76.74.29 1.64.44 2.72.44.74 0 1.4-.14 1.97-.42.57-.28 1.03-.69 1.36-1.21.33-.52.5-1.13.5-1.81 0-.78-.21-1.41-.63-1.88-.42-.48-.96-.87-1.64-1.18-.67-.31-1.39-.61-2.15-.9-.62-.23-1.24-.49-1.84-.77-.6-.28-1.15-.63-1.64-1.04-.49-.41-.88-.93-1.17-1.56-.29-.63-.44-1.43-.44-2.38 0-1.05.27-1.98.8-2.8.54-.82 1.29-1.45 2.26-1.91.97-.46 2.11-.69 3.42-.69.41 0 .87.04 1.39.12s1.02.2 1.52.35c.5.16.9.34 1.21.55.39.23.58.49.58.76 0 .14-.06.33-.17.58-.12.25-.25.48-.39.67-.15.19-.27.29-.36.29-.08 0-.18-.03-.31-.1s-.29-.15-.48-.25c-.31-.16-.71-.32-1.2-.5s-1.1-.26-1.84-.26c-.72 0-1.37.13-1.94.38-.58.25-1.02.62-1.34 1.11-.32.49-.48 1.09-.48 1.81 0 .7.18 1.26.55 1.66.37.41.86.74 1.46 1.01.6.26 1.26.53 1.96.8.64.25 1.29.53 1.94.83.65.3 1.25.68 1.8 1.12.54.45.98 1.01 1.3 1.68.32.67.48 1.5.48 2.5 0 .88-.15 1.66-.45 2.36-.3.7-.74 1.29-1.31 1.78-.57.49-1.26.86-2.04 1.12-.8.26-1.69.39-2.68.39" clip-path="url(#59e3818a-07b6-45cc-b4ea-21d142c74289)" fill="#ffffff" data-color="1"/>
        <path d="M305.81 302.63c-.58 0-.88-.29-.88-.88v-18.69c0-.58.29-.88.88-.88H316c.39 0 .58.29.58.88v.47c0 .58-.19.88-.58.88h-8.5v6.66h7.62c.39 0 .58.29.58.88v.47c0 .58-.2.88-.58.88h-7.62v7.12h8.53c.39 0 .58.29.58.88v.47c0 .58-.2.88-.58.88h-10.22z" clip-path="url(#59e3818a-07b6-45cc-b4ea-21d142c74289)" fill="#ffffff" data-color="1"/>
        <path d="M321.75 302.63c-.58 0-.88-.29-.88-.88v-18.69c0-.58.29-.88.88-.88h10.19c.39 0 .58.29.58.88v.47c0 .58-.2.88-.58.88h-8.5v6.66h7.62c.39 0 .58.29.58.88v.47c0 .58-.2.88-.58.88h-7.62v7.12h8.53c.39 0 .58.29.58.88v.47c0 .58-.2.88-.58.88h-10.22z" clip-path="url(#59e3818a-07b6-45cc-b4ea-21d142c74289)" fill="#ffffff" data-color="1"/>
        <path d="M348.06 302.69c-.29 0-.55-.03-.77-.1-.22-.07-.36-.19-.39-.36l-4.99-19.18c-.02-.06-.04-.13-.06-.2a.88.88 0 0 1-.03-.2c0-.33.42-.5 1.26-.5h.29c.29 0 .55.04.77.1.22.07.35.19.39.37l3.42 13.31c.12.41.22.85.32 1.33.1.48.18.93.26 1.36.08.43.13.79.15 1.08h.12c.08-.31.15-.62.22-.93.07-.31.14-.62.22-.93.08-.31.15-.62.23-.93l3.53-14.25c.04-.2.17-.33.38-.39.21-.07.47-.1.76-.1h.47c.29 0 .55.04.76.1.21.07.34.2.38.39l3.36 13.28c.12.41.22.85.31 1.31.09.47.17.92.25 1.34.08.43.13.8.15 1.11h.12c.08-.31.15-.64.22-.99s.14-.68.22-.99c.08-.31.15-.57.2-.79l3.53-14.31c.04-.18.17-.3.39-.37s.48-.1.77-.1h.17c.84 0 1.26.17 1.26.5 0 .02-.01.08-.03.18-.02.1-.04.17-.06.23l-5.05 19.18c-.04.17-.17.3-.39.36-.22.07-.48.1-.77.1h-1.2c-.29 0-.55-.03-.77-.1-.22-.07-.35-.19-.39-.36l-2.77-10.36c-.21-.8-.41-1.7-.6-2.71a23.06 23.06 0 0 1-.36-2.6h-.12c-.06.7-.15 1.46-.28 2.29-.13.83-.27 1.5-.42 2.03l-3.04 11.36c-.04.17-.17.3-.39.36-.22.07-.48.1-.77.1h-1.23z" clip-path="url(#59e3818a-07b6-45cc-b4ea-21d142c74289)" fill="#ffffff" data-color="1"/>
        <path d="M377.9 302.81c-2.92 0-5.15-.89-6.69-2.67-1.54-1.78-2.31-4.38-2.31-7.78 0-3.43.77-6.01 2.31-7.74 1.54-1.73 3.77-2.6 6.69-2.6 2.94 0 5.18.87 6.71 2.6 1.54 1.73 2.31 4.31 2.31 7.74 0 3.41-.77 6-2.31 7.78-1.54 1.78-3.77 2.67-6.71 2.67m0-2.22c2.06 0 3.64-.7 4.73-2.1 1.09-1.4 1.64-3.45 1.64-6.13 0-2.69-.55-4.71-1.64-6.07-1.09-1.36-2.67-2.04-4.73-2.04-2.06 0-3.64.68-4.72 2.04-1.08 1.36-1.62 3.39-1.62 6.07 0 2.69.54 4.73 1.62 6.13 1.08 1.4 2.65 2.1 4.72 2.1" clip-path="url(#59e3818a-07b6-45cc-b4ea-21d142c74289)" fill="#ffffff" data-color="1"/>
        <path d="M392.58 302.69c-.78 0-1.17-.21-1.17-.64v-18.98c0-.58.29-.88.88-.88h4.91c2.28 0 4.02.4 5.23 1.2 1.21.8 1.81 2.12 1.81 3.97 0 1.25-.3 2.28-.9 3.1-.6.82-1.42 1.43-2.45 1.84v.12c.62.19 1.12.61 1.5 1.24.38.63.75 1.43 1.12 2.41l2.28 5.75c.06.17.09.31.09.41 0 .31-.41.47-1.23.47h-.29c-.29 0-.55-.04-.76-.13-.21-.09-.35-.2-.41-.34l-2.22-5.72c-.43-1.15-.97-1.91-1.64-2.29-.66-.38-1.57-.57-2.71-.57h-2.63v8.41c0 .43-.39.64-1.17.64h-.24zm1.41-11.27h3.85c.7 0 1.33-.16 1.9-.5.56-.33 1.01-.77 1.34-1.31.33-.54.5-1.14.5-1.78 0-1.19-.36-2.05-1.08-2.6-.72-.54-1.67-.82-2.86-.82h-3.65v7.01z" clip-path="url(#59e3818a-07b6-45cc-b4ea-21d142c74289)" fill="#ffffff" data-color="1"/>
        <path d="M410.1 302.63c-.58 0-.88-.29-.88-.88v-18.98c0-.43.39-.64 1.17-.64h.23c.78 0 1.17.21 1.17.64v17.64h8.03c.39 0 .58.29.58.88v.47c0 .58-.2.88-.58.88h-9.72z" clip-path="url(#59e3818a-07b6-45cc-b4ea-21d142c74289)" fill="#ffffff" data-color="1"/>
        <path d="M423.65 302.63c-.58 0-.88-.29-.88-.88v-18.69c0-.58.29-.88.88-.88h5.9c1.67 0 3.19.33 4.55.98 1.36.65 2.45 1.72 3.26 3.21.81 1.49 1.21 3.5 1.21 6.03 0 1.89-.23 3.49-.7 4.8-.47 1.31-1.11 2.36-1.93 3.15-.82.79-1.77 1.36-2.86 1.72-1.09.36-2.27.54-3.53.54h-5.9zm1.69-2.22h4c1.23 0 2.34-.26 3.33-.79.99-.53 1.78-1.37 2.37-2.54.58-1.17.88-2.72.88-4.67 0-1.95-.29-3.5-.88-4.67-.58-1.17-1.37-2.02-2.37-2.54-.99-.52-2.1-.79-3.33-.79h-4v16z" clip-path="url(#59e3818a-07b6-45cc-b4ea-21d142c74289)" fill="#ffffff" data-color="1"/>
        <path d="M305.78 256.68v-87.74h-3.61v87.71c-3.66.79-6.4 4.05-6.4 7.95a8.13 8.13 0 0 0 16.26 0c0-3.85-2.67-7.07-6.25-7.92" fill="#64bd62" clip-path="url(#59e3818a-07b6-45cc-b4ea-21d142c74289)" data-color="3"/>
        <path d="M258.72 96.51c-12.94-10.14-28.81-19-47.17-26.33-21.17-8.45-40.87-12.92-51.44-14.92v-.19c0-4.5-3.65-8.15-8.15-8.15s-8.15 3.65-8.15 8.15 3.65 8.15 8.15 8.15c3.17 0 5.92-1.81 7.26-4.46 10.35 1.95 29.96 6.37 51.05 14.8 18.02 7.2 33.58 15.89 46.24 25.81 15.74 12.34 27.02 26.64 33.53 42.51l3.33-1.37c-6.72-16.46-18.39-31.27-34.65-44" fill="#ece843" clip-path="url(#59e3818a-07b6-45cc-b4ea-21d142c74289)" data-color="4"/>
        <path d="M459.2 45.05a8.15 8.15 0 0 0-8.15 8.14c-10.19 1.86-31.48 6.45-54.33 15.7-18.62 7.54-34.64 16.67-47.6 27.11-16.28 13.13-27.77 28.39-34.14 45.37l3.38 1.27c6.13-16.36 17.23-31.1 32.99-43.8 12.67-10.22 28.37-19.16 46.65-26.58 22.72-9.21 43.89-13.75 53.84-15.56a8.141 8.141 0 0 0 7.35 4.63c4.5 0 8.15-3.65 8.15-8.15.01-4.49-3.64-8.13-8.14-8.13" fill="#8f63aa" clip-path="url(#59e3818a-07b6-45cc-b4ea-21d142c74289)" data-color="5"/>
    </g>
</svg>
